<svg xmlns="http://www.w3.org/2000/svg" viewBox="0 0 360 720" role="img" aria-labelledby="title desc">
  <title id="title">Watchlist screen placeholder</title>
  <desc id="desc">A clean Questflow-branded placeholder without prices or financial data.</desc>
  <rect width="360" height="720" fill="#171917"/>
  <circle cx="180" cy="285" r="170" fill="#BEFF66" opacity=".035"/>
  <text x="30" y="76" fill="#858A83" font-family="Arial, sans-serif" font-size="12" letter-spacing="2">YOUR MARKETS</text>
  <text x="30" y="116" fill="#F4F4EE" font-family="Arial, sans-serif" font-size="28">Watchlist</text>
  <g fill="#202320" stroke="#30342F">
    <rect x="28" y="158" width="304" height="82" rx="18"/><rect x="28" y="256" width="304" height="82" rx="18"/><rect x="28" y="354" width="304" height="82" rx="18"/><rect x="28" y="452" width="304" height="82" rx="18"/>
  </g>
  <g fill="#343832">
    <circle cx="66" cy="199" r="17"/><circle cx="66" cy="297" r="17"/><circle cx="66" cy="395" r="17"/><circle cx="66" cy="493" r="17"/>
  </g>
  <g fill="#7C817A">
    <rect x="98" y="190" width="92" height="8" rx="4"/><rect x="98" y="208" width="58" height="6" rx="3" opacity=".5"/>
    <rect x="98" y="288" width="118" height="8" rx="4"/><rect x="98" y="306" width="70" height="6" rx="3" opacity=".5"/>
    <rect x="98" y="386" width="84" height="8" rx="4"/><rect x="98" y="404" width="104" height="6" rx="3" opacity=".5"/>
    <rect x="98" y="484" width="112" height="8" rx="4"/><rect x="98" y="502" width="64" height="6" rx="3" opacity=".5"/>
  </g>
  <text x="180" y="670" text-anchor="middle" fill="#6E736C" font-family="Arial, sans-serif" font-size="11" letter-spacing="1.5">SCREEN PLACEHOLDER</text>
</svg>
